<?xml version="1.0" encoding="UTF-8"?>
<svg xmlns="http://www.w3.org/2000/svg" xmlns:xlink="http://www.w3.org/1999/xlink" width="64px" height="64px" viewBox="0 0 64 64">
  <!-- Generator: Sketch 63.1 (92452) - https://sketch.com -->
  <title>fixed-logo</title>
  <desc>Created with Sketch.</desc>
  <g id="fixed-logo" stroke="none" stroke-width="1" fill="none" fill-rule="evenodd">
    <g id="logo-icon-svg">
      <rect id="Rectangle" opacity="0.400000006" x="0" y="0" width="64" height="64"></rect>
      <path d="M6.5,52 C5.11928813,52 4,50.8807119 4,49.5 L4,30.5 C4,29.1192881 5.11928813,28 6.5,28 C7.88071187,28 9,29.1192881 9,30.5 L9,47 L55,47 L55,21.116 L34.3502583,38.4447662 C34.0941867,38.6596358 33.800074,38.7993708 33.4947184,38.866316 L33.2748732,39.1285625 C32.5648696,39.9747118 31.3033584,40.0850798 30.4572091,39.3750762 L24.3288535,34.2327753 C23.4827042,33.5227717 23.3723363,32.2612605 24.0823399,31.4151112 L24.7251275,30.6490667 C25.4351311,29.8029174 26.6966422,29.6925495 27.5427916,30.4025531 L31.849,34.016 L52.127,17 L22.5,17 C21.1192881,17 20,15.8807119 20,14.5 C20,13.1192881 21.1192881,12 22.5,12 L57.5,12 C58.8807119,12 60,13.1192881 60,14.5 L60,49.5 C60,50.8254834 58.9684641,51.9100387 57.6643757,51.9946823 L57.5,52 L6.5,52 Z" id="Path" fill="#FFFFFF" fill-rule="nonzero"></path>
      <path d="M21.106969,24.5848889 C22.1646557,25.4723934 22.3026156,27.0492824 21.4151111,28.106969 C20.5276066,29.1646557 18.9507176,29.3026156 17.893031,28.4151111 C16.8353443,27.5276066 16.6973844,25.9507176 17.5848889,24.893031 C18.4723934,23.8353443 20.0492824,23.6973844 21.106969,24.5848889 Z M5.24465792,10.0853756 L15.9692801,19.0844022 C16.8154295,19.7944057 16.9257974,21.0559169 16.2157938,21.9020663 L15.5730062,22.6681107 C14.8630026,23.51426 13.6014914,23.624628 12.7553421,22.9146244 L2.03071987,13.9155978 C1.18457055,13.2055943 1.07420262,11.9440831 1.78420621,11.0979337 L2.42699382,10.3318893 C3.13699741,9.48573996 4.3985086,9.37537204 5.24465792,10.0853756 Z" id="Shape" fill="#FFFFFF" fill-rule="nonzero"></path>
    </g>
  </g>
</svg>
